<svg width="46" height="45" viewBox="0 0 46 45" fill="none" xmlns="http://www.w3.org/2000/svg">
<path d="M2.79678 14.05C5.87178 14.05 8.84678 14.55 11.6218 15.45C12.4968 15.75 13.4718 15.525 14.1468 14.85L18.0718 9.925C25.1468 13.3 31.7718 19.675 35.2968 27L30.4218 31.15C29.7468 31.85 29.5468 32.825 29.8218 33.7C30.7468 36.475 31.2218 39.45 31.2218 42.525C31.2218 43.875 32.3468 45 33.6968 45H42.3468C43.6968 45 45.3218 44.4 45.3218 42.525C45.3218 19.3 25.9968 0 2.79678 0C1.02177 0 0.321777 1.575 0.321777 2.95V11.575C0.321777 12.925 1.44678 14.05 2.79678 14.05Z" fill="url(#paint0_linear_7_170)"/>
<defs>
<linearGradient id="paint0_linear_7_170" x1="22.8218" y1="45" x2="22.8218" y2="0" gradientUnits="userSpaceOnUse">
<stop stop-color="#FD749B"/>
<stop offset="1" stop-color="#281AC8"/>
</linearGradient>
</defs>
</svg>
